<svg width="199" height="111" viewBox="0 0 199 111" fill="none" xmlns="http://www.w3.org/2000/svg">
<path d="M48.5967 110.538C37.9033 110.538 28.9678 108.194 21.79 103.507C14.6611 98.8193 9.29005 92.3984 5.67676 84.2441C2.11231 76.0898 0.330085 66.8369 0.330085 56.4853V54.9473C0.330085 44.498 2.20997 35.2207 5.96973 27.1152C9.7295 18.9609 15.125 12.54 22.1563 7.85254C29.1875 3.16504 37.5859 0.821288 47.3516 0.821288C54.2363 0.821288 60.5352 1.89551 66.248 4.04394C71.9609 6.19238 76.6973 8.92676 80.457 12.2471V35.2451H68.958L67.4199 18.3994C65.8574 17.1787 64.0508 16.1533 62 15.3232C59.9981 14.4932 57.752 13.8584 55.2617 13.4189C52.8203 12.9795 50.1592 12.7598 47.2783 12.7598C40.2959 12.7598 34.3877 14.5664 29.5537 18.1797C24.7197 21.7441 21.0576 26.6758 18.5674 32.9746C16.0772 39.2734 14.832 46.5488 14.832 54.8008V56.4853C14.832 65.4209 16.1504 73.0625 18.7871 79.4102C21.4727 85.709 25.3545 90.5185 30.4326 93.8389C35.5596 97.1592 41.7852 98.8193 49.1094 98.8193C52.5273 98.8193 55.8721 98.4043 59.1436 97.5742C62.415 96.7441 65.125 95.6699 67.2734 94.3516L68.8848 79.4834H80.1641V102.628C76.1602 105.118 71.375 107.071 65.8086 108.487C60.2422 109.854 54.5049 110.538 48.5967 110.538ZM94.8857 109V99.7715L106.824 97.7207V13.7119L94.8857 11.6611V2.35937H133.191V11.6611L121.253 13.7119V50.5527H172.229V13.7119L160.291 11.6611V2.35937H172.229H186.658H198.597V11.6611L186.658 13.7119V97.7207L198.597 99.7715V109H160.291V99.7715L172.229 97.7207V61.9053H121.253V97.7207L133.191 99.7715V109H94.8857Z" fill="#029BF6"/>
</svg>
